<svg xmlns="http://www.w3.org/2000/svg" width="30" height="34" viewBox="0 0 30 34">
  <g id="pdf" transform="translate(-5.319)">
    <path id="Path_801" data-name="Path 801" d="M22.405,45.11c0-.912-.633-1.457-1.751-1.457a3.827,3.827,0,0,0-.927.088v2.929a3.474,3.474,0,0,0,.75.058C21.67,46.729,22.405,46.126,22.405,45.11Z" transform="translate(-9.16 -27.688)" fill="#fff"/>
    <path id="Path_802" data-name="Path 802" d="M44.3,43.734a4.671,4.671,0,0,0-1.016.088v6.49a4.072,4.072,0,0,0,.78.045c2.031.014,3.355-1.1,3.355-3.473A2.845,2.845,0,0,0,44.3,43.734Z" transform="translate(-24.137 -27.731)" fill="#fff"/>
    <path id="Path_803" data-name="Path 803" d="M33.42,12.162h-.813V8.222a.577.577,0,0,0-.007-.074.656.656,0,0,0-.158-.432L25.911.228l-.005,0a.66.66,0,0,0-.132-.111C25.759.1,25.745.094,25.73.086A.683.683,0,0,0,25.6.031L25.563.019A.66.66,0,0,0,25.411,0H9.36A1.332,1.332,0,0,0,8.031,1.333V12.161H7.218a1.9,1.9,0,0,0-1.9,1.906v9.91a1.9,1.9,0,0,0,1.9,1.906h.813v6.784A1.332,1.332,0,0,0,9.36,34H31.279a1.333,1.333,0,0,0,1.328-1.333V25.883h.813a1.9,1.9,0,0,0,1.9-1.906v-9.91A1.9,1.9,0,0,0,33.42,12.162ZM9.36,1.334H24.747V8.155a.666.666,0,0,0,.664.667h5.868v3.34H9.36ZM25.667,19.075a5.055,5.055,0,0,1-1.649,4.033,7.1,7.1,0,0,1-4.575,1.285,19.427,19.427,0,0,1-2.546-.147V14.467a20,20,0,0,1,3.032-.207,6.368,6.368,0,0,1,4.061,1.063A4.412,4.412,0,0,1,25.667,19.075ZM8.345,24.29V14.467a18.37,18.37,0,0,1,3.032-.207,4.742,4.742,0,0,1,3.031.8,2.913,2.913,0,0,1,1.059,2.3,3.184,3.184,0,0,1-.912,2.363,4.587,4.587,0,0,1-3.223,1.049,5.6,5.6,0,0,1-.765-.045v3.56H8.345Zm22.934,8.016H9.36V25.883H31.279v6.423ZM33.2,16.181H29.391v2.275h3.562v1.832H29.391v4H27.141V14.334H33.2Z" fill="#fff"/>
  </g>
</svg>
